<?xml version="1.0" encoding="utf-8"?>
<!-- Generator: Adobe Illustrator 16.0.0, SVG Export Plug-In . SVG Version: 6.00 Build 0)  -->
<!DOCTYPE svg PUBLIC "-//W3C//DTD SVG 1.1//EN" "http://www.w3.org/Graphics/SVG/1.1/DTD/svg11.dtd" [
	<!ENTITY ns_extend "http://ns.adobe.com/Extensibility/1.0/">
	<!ENTITY ns_ai "http://ns.adobe.com/AdobeIllustrator/10.0/">
	<!ENTITY ns_graphs "http://ns.adobe.com/Graphs/1.0/">
	<!ENTITY ns_vars "http://ns.adobe.com/Variables/1.0/">
	<!ENTITY ns_imrep "http://ns.adobe.com/ImageReplacement/1.0/">
	<!ENTITY ns_sfw "http://ns.adobe.com/SaveForWeb/1.0/">
	<!ENTITY ns_custom "http://ns.adobe.com/GenericCustomNamespace/1.0/">
	<!ENTITY ns_adobe_xpath "http://ns.adobe.com/XPath/1.0/">
]>
<svg version="1.1" id="Layer_1" xmlns:x="&ns_extend;" xmlns:i="&ns_ai;" xmlns:graph="&ns_graphs;"
	 xmlns="http://www.w3.org/2000/svg" xmlns:xlink="http://www.w3.org/1999/xlink" x="0px" y="0px" width="1417.32px"
	 height="367.333px" viewBox="0 0 1417.32 367.333" enable-background="new 0 0 1417.32 367.333" xml:space="preserve">
<metadata>
	<sfw  xmlns="&ns_sfw;">
		<slices></slices>
		<sliceSourceBounds  width="1410.529" height="361.005" y="-361.005" x="4.699" bottomLeftOrigin="true"></sliceSourceBounds>
	</sfw>
</metadata>
<g>
	<g>
		<path fill="#000000" d="M305.293,97.2l-52.767-33.68v-9.477l52.767-38.223v15.269l-39.585,26.948l39.585,23.729V97.2z"/>
		<path fill="#000000" d="M352.718,0l-29.382,114.508h-11.996L340.779,0H352.718z"/>
		<path fill="#000000" d="M358.822,81.767l39.592-23.729l-39.592-26.948V15.82l52.766,38.223v9.477L358.822,97.2V81.767z"/>
	</g>
	<g>
		<path fill="#000000" d="M46.024,333.511V123.036h4.58L190.68,284.375V123.036h20.745v210.476h-4.714L67.774,174.133v159.378
			H46.024z"/>
		<path fill="#000000" d="M333.053,173.83c23.984,0,43.854,8.682,59.631,26.04c14.325,15.839,21.494,34.58,21.494,56.232
			c0,21.75-7.571,40.755-22.721,57.021c-15.143,16.264-34.618,24.396-58.404,24.396c-23.892,0-43.41-8.133-58.553-24.396
			c-15.149-16.265-22.721-35.27-22.721-57.021c0-21.554,7.162-40.253,21.5-56.087C289.043,182.558,308.97,173.83,333.053,173.83z
			 M332.975,193.432c-16.653,0-30.962,6.153-42.93,18.459c-11.967,12.306-17.951,27.184-17.951,44.641
			c0,11.257,2.731,21.75,8.185,31.477c5.461,9.731,12.828,17.243,22.114,22.538c9.286,5.292,19.482,7.942,30.582,7.942
			c11.106,0,21.302-2.651,30.588-7.942c9.286-5.295,16.66-12.806,22.114-22.538c5.454-9.727,8.185-20.22,8.185-31.477
			c0-17.458-6.004-32.335-18.021-44.641C363.825,199.585,349.543,193.432,332.975,193.432z"/>
		<path fill="#000000" d="M468.694,120.03h20.025v57.808h31.767v17.313h-31.767v138.361h-20.025V195.15h-27.336v-17.313h27.336
			V120.03z"/>
		<path fill="#000000" d="M681.601,281.855l16.886,8.875c-5.54,10.874-11.939,19.651-19.193,26.325
			c-7.253,6.679-15.417,11.761-24.485,15.238c-9.074,3.483-19.333,5.225-30.793,5.225c-25.401,0-45.258-8.323-59.582-24.968
			c-14.317-16.646-21.479-35.46-21.479-56.449c0-19.745,6.062-37.346,18.191-52.799c15.369-19.646,35.944-29.473,61.721-29.473
			c26.545,0,47.735,10.065,63.583,30.19c11.269,14.215,16.998,31.957,17.188,53.228h-140.08c0.381,18.083,6.161,32.904,17.33,44.468
			c11.177,11.562,24.979,17.344,41.406,17.344c7.931,0,15.637-1.375,23.138-4.135c7.493-2.751,13.865-6.414,19.122-10.975
			C669.81,299.392,675.49,292.024,681.601,281.855z M681.601,239.935c-2.674-10.682-6.569-19.221-11.678-25.613
			c-5.108-6.389-11.868-11.541-20.265-15.454c-8.411-3.908-17.246-5.867-26.503-5.867c-15.284,0-28.415,4.915-39.402,14.74
			c-8.016,7.152-14.084,17.884-18.191,32.194H681.601z"/>
		<path fill="#000000" d="M896.074,177.838v155.673h-19.742v-26.757c-8.398,10.21-17.812,17.888-28.255,23.039
			c-10.441,5.15-21.874,7.726-34.265,7.726c-22.044,0-40.855-7.991-56.448-23.966c-15.596-15.979-23.399-35.415-23.399-58.309
			c0-22.414,7.874-41.589,23.61-57.518c15.735-15.93,34.674-23.896,56.803-23.896c12.786,0,24.343,2.72,34.701,8.157
			c10.345,5.438,19.434,13.59,27.253,24.467v-28.616H896.074z M816.028,193.146c-11.148,0-21.438,2.741-30.879,8.216
			c-9.426,5.483-16.934,13.178-22.5,23.084c-5.575,9.912-8.363,20.39-8.363,31.444c0,10.957,2.81,21.44,8.433,31.442
			c5.624,10.001,13.175,17.792,22.643,23.366c9.485,5.575,19.66,8.361,30.525,8.361c10.952,0,21.339-2.763,31.146-8.291
			c9.822-5.523,17.373-13.004,22.651-22.434c5.292-9.435,7.944-20.058,7.944-31.874c0-18.006-5.94-33.061-17.796-45.163
			C847.966,199.197,833.359,193.146,816.028,193.146z"/>
		<path fill="#000000" d="M942.446,333.511V117.74h20.027v86.852c8.383-10.298,17.768-18.004,28.154-23.106
			s21.775-7.656,34.166-7.656c22.016,0,40.812,7.991,56.392,23.966c15.58,15.979,23.371,35.365,23.371,58.164
			c0,22.512-7.86,41.734-23.582,57.663c-15.721,15.93-34.646,23.896-56.746,23.896c-12.672,0-24.159-2.719-34.448-8.156
			c-10.302-5.437-19.391-13.595-27.307-24.468v28.616H942.446z M1022.563,318.203c11.135,0,21.424-2.741,30.835-8.228
			c9.428-5.485,16.922-13.188,22.482-23.108c5.573-9.921,8.354-20.415,8.354-31.479c0-11.064-2.81-21.605-8.411-31.622
			c-5.617-10.017-13.168-17.814-22.636-23.395c-9.47-5.582-19.575-8.37-30.328-8.37c-10.952,0-21.353,2.788-31.202,8.37
			c-9.852,5.58-17.416,13.093-22.694,22.538c-5.276,9.441-7.916,20.078-7.916,31.904c0,18.029,5.914,33.104,17.768,45.217
			C990.669,312.146,1005.247,318.203,1022.563,318.203z"/>
		<path fill="#000000" d="M1138.031,117.74h20.04v215.771h-20.04V117.74z"/>
		<path fill="#000000" d="M1330.777,281.855l16.879,8.875c-5.531,10.874-11.938,19.651-19.192,26.325
			c-7.253,6.679-15.409,11.761-24.485,15.238c-9.073,3.483-19.333,5.225-30.793,5.225c-25.402,0-45.259-8.323-59.583-24.968
			c-14.322-16.646-21.479-35.46-21.479-56.449c0-19.745,6.069-37.346,18.19-52.799c15.368-19.646,35.945-29.473,61.727-29.473
			c26.532,0,47.729,10.065,63.578,30.19c11.277,14.215,16.992,31.957,17.189,53.228h-140.08c0.38,18.083,6.152,32.904,17.329,44.468
			c11.177,11.562,24.979,17.344,41.407,17.344c7.929,0,15.635-1.375,23.131-4.135c7.506-2.751,13.871-6.414,19.137-10.975
			C1318.98,299.392,1324.669,292.024,1330.777,281.855z M1330.777,239.935c-2.681-10.682-6.575-19.221-11.684-25.613
			c-5.108-6.389-11.867-11.541-20.267-15.454c-8.409-3.908-17.246-5.867-26.502-5.867c-15.285,0-28.423,4.915-39.403,14.74
			c-8.016,7.152-14.081,17.884-18.189,32.194H1330.777z"/>
	</g>
	<path fill="#000000" d="M212.285,59.495H29.329c-9.703,0-17.595,7.903-17.595,17.598V336.38c0,9.702,7.893,17.591,17.595,17.591
		h182.956v7.034H29.329c-13.583,0-24.63-11.049-24.63-24.625V77.093c0-13.576,11.046-24.626,24.63-24.626h182.956"/>
	<g>
		<path fill="#000000" d="M57.011,109.834c-10.373,0-18.812-8.439-18.812-18.812c0-10.373,8.439-18.813,18.812-18.813
			c10.368,0,18.808,8.439,18.808,18.813C75.818,101.395,67.379,109.834,57.011,109.834z M57.011,78.737
			c-6.771,0-12.278,5.511-12.278,12.285s5.508,12.277,12.278,12.277c6.77,0,12.288-5.503,12.288-12.277S63.78,78.737,57.011,78.737z
			"/>
		<rect x="49.262" y="32.963" fill="#000000" width="6.527" height="60.231"/>
		<rect x="58.626" y="32.963" fill="#000000" width="6.524" height="60.231"/>
	</g>
	<g>
		<path fill="#000000" d="M106.88,109.834c-10.374,0-18.812-8.439-18.812-18.812c0-10.373,8.438-18.813,18.812-18.813
			c10.373,0,18.812,8.439,18.812,18.813C125.692,101.395,117.253,109.834,106.88,109.834z M106.88,78.737
			c-6.774,0-12.278,5.511-12.278,12.285s5.504,12.277,12.278,12.277c6.774,0,12.284-5.503,12.284-12.277
			S113.654,78.737,106.88,78.737z"/>
		<rect x="99.132" y="32.963" fill="#000000" width="6.527" height="60.231"/>
		<rect x="108.496" y="32.963" fill="#000000" width="6.527" height="60.231"/>
	</g>
	<g>
		<path fill="#000000" d="M1324.372,114.833l3.225-1.934c2.264,4.174,4.888,6.263,7.866,6.263c1.27,0,2.464-0.297,3.577-0.89
			c1.124-0.593,1.971-1.386,2.555-2.385c0.587-0.995,0.877-2.053,0.877-3.172c0-1.27-0.431-2.515-1.291-3.736
			c-1.187-1.687-3.348-3.711-6.492-6.086c-3.161-2.388-5.138-4.117-5.908-5.183c-1.341-1.785-2.011-3.719-2.011-5.8
			c0-1.651,0.396-3.153,1.188-4.512c0.79-1.358,1.903-2.427,3.338-3.21c1.43-0.78,2.997-1.171,4.678-1.171
			c1.791,0,3.458,0.441,5.015,1.326c1.561,0.885,3.198,2.516,4.942,4.887l-3.098,2.346c-1.428-1.891-2.642-3.136-3.642-3.739
			c-1.011-0.6-2.104-0.9-3.288-0.9c-1.54,0-2.78,0.462-3.754,1.39c-0.975,0.928-1.454,2.072-1.454,3.43
			c0,0.825,0.17,1.626,0.507,2.399c0.347,0.773,0.974,1.617,1.884,2.526c0.504,0.48,2.131,1.747,4.905,3.79
			c3.274,2.423,5.531,4.583,6.745,6.474c1.228,1.888,1.834,3.79,1.834,5.698c0,2.748-1.044,5.137-3.131,7.166
			c-2.091,2.029-4.632,3.041-7.622,3.041c-2.301,0-4.389-0.614-6.266-1.841C1327.68,119.779,1325.953,117.719,1324.372,114.833z"/>
		<path fill="#000000" d="M1352.865,121.896l5.432-37.927h0.606l15.425,31.122l15.272-31.122h0.606l5.452,37.927h-3.718
			l-3.738-27.124l-13.414,27.124h-0.967l-13.578-27.329l-3.725,27.329H1352.865z"/>
	</g>
	<path fill="#000000" d="M1362.248,156.136c-29.213,0-52.978-23.765-52.978-52.974c0-29.213,23.765-52.982,52.978-52.982
		s52.98,23.769,52.98,52.982C1415.229,132.371,1391.461,156.136,1362.248,156.136z M1362.248,57.406
		c-25.225,0-45.752,20.527-45.752,45.756c0,25.226,20.527,45.75,45.752,45.75c25.229,0,45.755-20.524,45.755-45.75
		C1408.003,77.933,1387.477,57.406,1362.248,57.406z"/>
</g>
</svg>
